<svg width="25" height="25" viewBox="0 0 25 25" fill="none" xmlns="http://www.w3.org/2000/svg">
<path d="M9.5 16.5H6.75245C6.518 16.5 6.40078 16.5 6.30205 16.5098C5.35403 16.6041 4.60411 17.354 4.50982 18.302C4.5 18.4008 4.5 18.518 4.5 18.7525V18.7525C4.5 19.0322 4.5 19.1721 4.51244 19.2831C4.63321 20.3608 5.5909 21.146 6.67139 21.053C6.78269 21.0435 6.91986 21.016 7.19419 20.9612L7.49029 20.9019C7.87076 20.8258 8.06099 20.7878 8.2215 20.7257C8.8765 20.4724 9.35063 19.894 9.4706 19.2021C9.5 19.0325 9.5 18.8385 9.5 18.4505V9.77922C9.5 8.20946 9.5 7.42459 9.95332 6.87163C10.4066 6.31867 11.1763 6.16475 12.7155 5.85689L14.7155 5.45689C16.9291 5.01417 18.036 4.79281 18.768 5.39292C19.5 5.99304 19.5 7.12176 19.5 9.37922V9.5M19.5 14.5V16.4505C19.5 16.8385 19.5 17.0325 19.4706 17.2021C19.3506 17.894 18.8765 18.4724 18.2215 18.7257C18.061 18.7878 17.8708 18.8258 17.4903 18.9019L17.1942 18.9612C16.9199 19.016 16.7827 19.0435 16.6714 19.053C15.5909 19.146 14.6332 18.3608 14.5124 17.2831C14.5 17.1721 14.5 17.0322 14.5 16.7525V16.7525C14.5 16.518 14.5 16.4008 14.5098 16.302C14.6041 15.354 15.354 14.6041 16.302 14.5098C16.4008 14.5 16.518 14.5 16.7525 14.5H19.5ZM19.5 14.5V9.5M19.5 9.5L9.5 11.5" stroke="#7B7B7B" stroke-width="2"/>
</svg>
