<svg width="25" height="25" viewBox="0 0 25 25" fill="none" xmlns="http://www.w3.org/2000/svg">
<circle cx="12.5" cy="12.5" r="1" fill="#7B7B7B"/>
<path d="M17.5 12.5C17.5 15.1113 16.8629 17.4271 15.8851 19.0566C14.8955 20.706 13.6676 21.5 12.5 21.5C11.3324 21.5 10.1045 20.706 9.11485 19.0566C8.13714 17.4271 7.5 15.1113 7.5 12.5C7.5 9.88866 8.13714 7.57295 9.11485 5.94343C10.1045 4.294 11.3324 3.5 12.5 3.5C13.6676 3.5 14.8955 4.294 15.8851 5.94343C16.8629 7.57295 17.5 9.88866 17.5 12.5Z" stroke="#7B7B7B" stroke-width="2"/>
<path d="M12.5 17.5C9.88866 17.5 7.57295 16.8629 5.94343 15.8851C4.294 14.8955 3.5 13.6676 3.5 12.5C3.5 11.3324 4.294 10.1045 5.94343 9.11485C7.57295 8.13714 9.88866 7.5 12.5 7.5C15.1113 7.5 17.4271 8.13714 19.0566 9.11485C20.706 10.1045 21.5 11.3324 21.5 12.5C21.5 13.6676 20.706 14.8955 19.0566 15.8851C17.4271 16.8629 15.1113 17.5 12.5 17.5Z" stroke="#7B7B7B" stroke-width="2"/>
</svg>
