<svg width="25" height="25" viewBox="0 0 25 25" fill="none" xmlns="http://www.w3.org/2000/svg">
<path d="M15.5 5.5V12.1972C15.5 12.3946 15.5584 12.5877 15.6679 12.7519L20.4635 19.9453C20.9066 20.6099 20.4302 21.5 19.6315 21.5H5.36852C4.56982 21.5 4.09343 20.6099 4.53647 19.9453L9.33205 12.7519C9.44156 12.5877 9.5 12.3946 9.5 12.1972V5.5" stroke="#7B7B7B" stroke-width="2" stroke-linejoin="round"/>
<path d="M17.4 18.7L15.3 15.9C15.1111 15.6482 14.8148 15.5 14.5 15.5H10.5C10.1852 15.5 9.88885 15.6482 9.7 15.9L7.6 18.7C7.35279 19.0296 7.58798 19.5 8 19.5H17C17.412 19.5 17.6472 19.0296 17.4 18.7Z" fill="#7B7B7B"/>
<path d="M7.5 5.5H17.5" stroke="#7B7B7B" stroke-width="2" stroke-linecap="round" stroke-linejoin="round"/>
</svg>
