<svg width="24" height="25" viewBox="0 0 24 25" fill="none" xmlns="http://www.w3.org/2000/svg">
<path d="M9 21.5H15" stroke="#7B7B7B" stroke-width="2" stroke-linecap="round"/>
<path d="M12 21.5V16.5" stroke="#7B7B7B" stroke-width="2" stroke-linecap="round"/>
<mask id="path-3-inside-1_27_545" fill="white">
<path d="M5 9.78571C5 9.52012 5 9.38733 5.02507 9.27748C5.11055 8.90298 5.40298 8.61055 5.77748 8.52507C5.88733 8.5 6.02012 8.5 6.28571 8.5H17.7143C17.9799 8.5 18.1127 8.5 18.2225 8.52507C18.597 8.61055 18.8895 8.90298 18.9749 9.27748C19 9.38733 19 9.52012 19 9.78571V10.5C19 11.4288 19 11.8933 18.9487 12.2832C18.5942 14.9756 16.4756 17.0942 13.7832 17.4487C13.3933 17.5 12.9288 17.5 12 17.5C11.0712 17.5 10.6067 17.5 10.2168 17.4487C7.52444 17.0942 5.40579 14.9756 5.05133 12.2832C5 11.8933 5 11.4288 5 10.5V9.78571Z"/>
</mask>
<path d="M5 9.78571C5 9.52012 5 9.38733 5.02507 9.27748C5.11055 8.90298 5.40298 8.61055 5.77748 8.52507C5.88733 8.5 6.02012 8.5 6.28571 8.5H17.7143C17.9799 8.5 18.1127 8.5 18.2225 8.52507C18.597 8.61055 18.8895 8.90298 18.9749 9.27748C19 9.38733 19 9.52012 19 9.78571V10.5C19 11.4288 19 11.8933 18.9487 12.2832C18.5942 14.9756 16.4756 17.0942 13.7832 17.4487C13.3933 17.5 12.9288 17.5 12 17.5C11.0712 17.5 10.6067 17.5 10.2168 17.4487C7.52444 17.0942 5.40579 14.9756 5.05133 12.2832C5 11.8933 5 11.4288 5 10.5V9.78571Z" stroke="#7B7B7B" stroke-width="4" stroke-linecap="round" mask="url(#path-3-inside-1_27_545)"/>
<path d="M11.0385 12.2253C10.8868 12.7563 11.1942 13.3098 11.7253 13.4615C12.2563 13.6132 12.8098 13.3058 12.9615 12.7747L11.0385 12.2253ZM13.7305 6.4432L14.692 6.71792L13.7305 6.4432ZM14.9108 5.13569L14.5394 4.20721L14.5394 4.20721L14.9108 5.13569ZM14.0845 5.57626L14.8268 6.24632L14.0845 5.57626ZM12.9615 12.7747L14.692 6.71792L12.769 6.16848L11.0385 12.2253L12.9615 12.7747ZM15.2822 6.06416L19.3714 4.42848L18.6286 2.57152L14.5394 4.20721L15.2822 6.06416ZM14.692 6.71792C14.7629 6.47002 14.7995 6.34514 14.8328 6.25786C14.8593 6.18854 14.8599 6.20964 14.8268 6.24632L13.3422 4.90619C12.9947 5.29109 12.8743 5.79982 12.769 6.16848L14.692 6.71792ZM14.5394 4.20721C14.1834 4.3496 13.6896 4.5213 13.3422 4.90619L14.8268 6.24632C14.7937 6.283 14.7726 6.28461 14.8389 6.25117C14.9223 6.20905 15.0428 6.15992 15.2822 6.06416L14.5394 4.20721Z" fill="#7B7B7B"/>
</svg>
