<svg width="25" height="25" viewBox="0 0 25 25" fill="none" xmlns="http://www.w3.org/2000/svg">
<path d="M3.5 9C3.5 7.60218 3.5 6.90326 3.72836 6.35195C4.03284 5.61687 4.61687 5.03284 5.35195 4.72836C5.90326 4.5 6.60218 4.5 8 4.5H17C18.3978 4.5 19.0967 4.5 19.6481 4.72836C20.3831 5.03284 20.9672 5.61687 21.2716 6.35195C21.5 6.90326 21.5 7.60218 21.5 9V9.75C21.5 10.1642 21.1642 10.5 20.75 10.5H20.5C19.3954 10.5 18.5 11.3954 18.5 12.5V12.5C18.5 13.6046 19.3954 14.5 20.5 14.5H20.75C21.1642 14.5 21.5 14.8358 21.5 15.25V16C21.5 17.3978 21.5 18.0967 21.2716 18.6481C20.9672 19.3831 20.3831 19.9672 19.6481 20.2716C19.0967 20.5 18.3978 20.5 17 20.5H8C6.60218 20.5 5.90326 20.5 5.35195 20.2716C4.61687 19.9672 4.03284 19.3831 3.72836 18.6481C3.5 18.0967 3.5 17.3978 3.5 16V15.25C3.5 14.8358 3.83579 14.5 4.25 14.5H4.5C5.60457 14.5 6.5 13.6046 6.5 12.5V12.5C6.5 11.3954 5.60457 10.5 4.5 10.5H4.25C3.83579 10.5 3.5 10.1642 3.5 9.75V9Z" stroke="#7B7B7B" stroke-width="2"/>
<path d="M12.0568 11.1885C12.2249 10.7536 12.309 10.5361 12.4455 10.5059C12.4814 10.498 12.5186 10.498 12.5545 10.5059C12.691 10.5361 12.7751 10.7536 12.9432 11.1885C13.0389 11.4359 13.0867 11.5596 13.1761 11.6437C13.2012 11.6673 13.2284 11.6883 13.2574 11.7065C13.3608 11.7711 13.4899 11.7831 13.748 11.8071C14.185 11.8477 14.4035 11.868 14.4702 11.9973C14.484 12.0241 14.4934 12.0531 14.498 12.0831C14.5201 12.2279 14.3595 12.3796 14.0383 12.6829L13.949 12.7671C13.7989 12.9089 13.7238 12.9798 13.6803 13.0683C13.6543 13.1213 13.6368 13.1785 13.6286 13.2375C13.615 13.3358 13.637 13.4386 13.6809 13.6443L13.6967 13.7178C13.7755 14.0867 13.815 14.2712 13.7657 14.3618C13.7215 14.4433 13.6401 14.4954 13.5501 14.4999C13.4499 14.5048 13.3088 14.3855 13.0265 14.1468C12.8406 13.9895 12.7476 13.9109 12.6443 13.8802C12.55 13.8521 12.45 13.8521 12.3557 13.8802C12.2524 13.9109 12.1594 13.9895 11.9735 14.1468C11.6912 14.3855 11.5501 14.5048 11.4499 14.4999C11.3599 14.4954 11.2785 14.4433 11.2343 14.3618C11.185 14.2712 11.2245 14.0867 11.3033 13.7178L11.3191 13.6443C11.363 13.4386 11.385 13.3358 11.3714 13.2375C11.3632 13.1785 11.3457 13.1213 11.3197 13.0683C11.2762 12.9798 11.2011 12.9089 11.051 12.7671L10.9617 12.6829C10.6405 12.3796 10.4799 12.2279 10.502 12.0831C10.5066 12.0531 10.516 12.0241 10.5298 11.9973C10.5965 11.868 10.815 11.8477 11.252 11.8071C11.5101 11.7831 11.6392 11.7711 11.7426 11.7065C11.7716 11.6883 11.7988 11.6673 11.8239 11.6437C11.9133 11.5596 11.9611 11.4359 12.0568 11.1885Z" fill="#7B7B7B" stroke="#7B7B7B"/>
</svg>
